REM MD5 57d6ae6568a77409abfc94ba1d695b62
FILE "Dance Dance Revolution (Japan).bin" BINARY
  TRACK 01 MODE2/2352
    FLAGS DCP
    INDEX 01 00:00:00
  TRACK 02 AUDIO
    FLAGS DCP
    INDEX 00 01:24:50
    INDEX 01 01:26:50
  TRACK 03 AUDIO
    FLAGS DCP
    INDEX 00 02:24:58
    INDEX 01 02:26:58
  TRACK 04 AUDIO
    FLAGS DCP
    INDEX 00 03:38:22
    INDEX 01 03:40:22
  TRACK 05 AUDIO
    FLAGS DCP
    INDEX 00 04:26:71
    INDEX 01 04:28:71
  TRACK 06 AUDIO
    FLAGS DCP
    INDEX 00 04:49:34
    INDEX 01 04:51:34
  TRACK 07 AUDIO
    FLAGS DCP
    INDEX 00 05:11:73
    INDEX 01 05:13:73
  TRACK 08 AUDIO
    FLAGS DCP
    INDEX 00 05:34:36
    INDEX 01 05:36:36
  TRACK 09 AUDIO
    FLAGS DCP
    INDEX 00 05:57:01
    INDEX 01 05:59:01
  TRACK 10 AUDIO
    FLAGS DCP
    INDEX 00 06:19:43
    INDEX 01 06:21:43
  TRACK 11 AUDIO
    FLAGS DCP
    INDEX 00 06:42:06
    INDEX 01 06:44:06
  TRACK 12 AUDIO
    FLAGS DCP
    INDEX 00 07:04:45
    INDEX 01 07:06:45
  TRACK 13 AUDIO
    FLAGS DCP
    INDEX 00 07:27:10
    INDEX 01 07:29:10
  TRACK 14 AUDIO
    FLAGS DCP
    INDEX 00 07:49:48
    INDEX 01 07:51:48
  TRACK 15 AUDIO
    FLAGS DCP
    INDEX 00 08:12:11
    INDEX 01 08:14:11
  TRACK 16 AUDIO
    FLAGS DCP
    INDEX 00 08:34:50
    INDEX 01 08:36:50
  TRACK 17 AUDIO
    FLAGS DCP
    INDEX 00 08:56:51
    INDEX 01 08:58:51
  TRACK 18 AUDIO
    FLAGS DCP
    INDEX 00 09:18:52
    INDEX 01 09:20:52
  TRACK 19 AUDIO
    FLAGS DCP
    INDEX 00 09:40:52
    INDEX 01 09:42:52
  TRACK 20 AUDIO
    FLAGS DCP
    INDEX 00 10:02:52
    INDEX 01 10:04:52
  TRACK 21 AUDIO
    FLAGS DCP
    INDEX 00 10:24:53
    INDEX 01 10:26:53
  TRACK 22 AUDIO
    FLAGS DCP
    INDEX 00 11:52:08
    INDEX 01 11:54:08
  TRACK 23 AUDIO
    FLAGS DCP
    INDEX 00 13:28:20
    INDEX 01 13:30:20
  TRACK 24 AUDIO
    FLAGS DCP
    INDEX 00 15:05:44
    INDEX 01 15:07:44
  TRACK 25 AUDIO
    FLAGS DCP
    INDEX 00 16:38:20
    INDEX 01 16:40:20
  TRACK 26 AUDIO
    FLAGS DCP
    INDEX 00 18:07:10
    INDEX 01 18:09:10
  TRACK 27 AUDIO
    FLAGS DCP
    INDEX 00 19:39:31
    INDEX 01 19:41:31
  TRACK 28 AUDIO
    FLAGS DCP
    INDEX 00 21:22:66
    INDEX 01 21:24:66
  TRACK 29 AUDIO
    FLAGS DCP
    INDEX 00 23:06:14
    INDEX 01 23:08:14
  TRACK 30 AUDIO
    FLAGS DCP
    INDEX 00 24:36:23
    INDEX 01 24:38:23
  TRACK 31 AUDIO
    FLAGS DCP
    INDEX 00 26:05:41
    INDEX 01 26:07:41
  TRACK 32 AUDIO
    FLAGS DCP
    INDEX 00 27:47:32
    INDEX 01 27:49:32
  TRACK 33 AUDIO
    FLAGS DCP
    INDEX 00 29:15:72
    INDEX 01 29:17:72
  TRACK 34 AUDIO
    FLAGS DCP
    INDEX 00 30:46:66
    INDEX 01 30:48:66
  TRACK 35 AUDIO
    FLAGS DCP
    INDEX 00 32:33:66
    INDEX 01 32:35:66
  TRACK 36 AUDIO
    FLAGS DCP
    INDEX 00 34:15:66
    INDEX 01 34:17:66
  TRACK 37 AUDIO
    FLAGS DCP
    INDEX 00 35:52:44
    INDEX 01 35:54:44
  TRACK 38 AUDIO
    FLAGS DCP
    INDEX 00 37:16:05
    INDEX 01 37:18:05
  TRACK 39 AUDIO
    FLAGS DCP
    INDEX 00 38:04:02
    INDEX 01 38:06:02
  TRACK 40 AUDIO
    FLAGS DCP
    INDEX 00 39:24:35
    INDEX 01 39:26:35
REM LEADOUT 42:30:35
